<?xml version="1.0" encoding="UTF-8"?>
<svg xmlns="http://www.w3.org/2000/svg" xmlns:xlink="http://www.w3.org/1999/xlink" width="48pt" height="48pt" viewBox="0 0 48 48" version="1.1">
<g id="surface26319198">
<path style=" stroke:none;fill-rule:nonzero;fill:rgb(100%,100%,100%);fill-opacity:1;" d="M 39.839844 12.960938 C 40.113281 12.960938 40.328125 13.1875 40.320312 13.460938 L 39.277344 37.585938 C 39.203125 39.382812 37.722656 40.800781 35.921875 40.800781 L 12.078125 40.800781 C 10.277344 40.800781 8.796875 39.382812 8.722656 37.585938 L 7.679688 13.460938 C 7.671875 13.1875 7.886719 12.960938 8.160156 12.960938 L 15.839844 12.960938 C 15.839844 7.925781 19.492188 3.839844 24 3.839844 C 28.507812 3.839844 32.160156 7.925781 32.160156 12.960938 Z M 18.238281 12.960938 L 29.761719 12.960938 C 29.761719 9.253906 27.175781 6.238281 24 6.238281 C 20.824219 6.238281 18.238281 9.253906 18.238281 12.960938 Z M 18.238281 12.960938 "/>
<path style=" stroke:none;fill-rule:nonzero;fill:rgb(6.27451%,6.27451%,6.27451%);fill-opacity:1;" d="M 24.046875 18.960938 C 21.679688 18.960938 19.96875 20.269531 19.96875 22.078125 C 19.96875 23.878906 21.558594 24.589844 24.167969 25.546875 C 26.8125 26.515625 29.808594 27.609375 29.808594 31.089844 C 29.808594 33.707031 27.226562 35.761719 23.929688 35.761719 C 21.019531 35.761719 18.625 33.980469 18.035156 33.5 L 18.84375 32.300781 C 18.867188 32.324219 21.191406 34.320312 23.929688 34.320312 C 26.375 34.320312 28.367188 32.871094 28.367188 31.089844 C 28.367188 28.78125 26.597656 27.96875 23.671875 26.898438 C 21.265625 26.019531 18.527344 25.019531 18.527344 22.078125 C 18.527344 19.476562 20.898438 17.519531 24.046875 17.519531 C 26.441406 17.519531 28.328125 18.621094 28.929688 19.007812 C 29.039062 19.078125 29.074219 19.222656 29 19.335938 L 28.507812 20.140625 C 28.433594 20.25 28.292969 20.289062 28.175781 20.21875 C 28.011719 20.117188 27.824219 20.007812 27.738281 19.957031 C 26.996094 19.554688 25.621094 18.960938 24.046875 18.960938 Z M 24.046875 18.960938 "/>
<path style=" stroke:none;fill-rule:nonzero;fill:rgb(100%,100%,100%);fill-opacity:1;" d="M 35.921875 41.28125 L 12.078125 41.28125 C 10.015625 41.28125 8.328125 39.664062 8.242188 37.605469 L 7.199219 13.480469 C 7.191406 13.210938 7.285156 12.960938 7.46875 12.773438 C 7.652344 12.585938 7.898438 12.480469 8.160156 12.480469 L 15.371094 12.480469 C 15.597656 7.410156 19.378906 3.359375 24 3.359375 C 28.621094 3.359375 32.402344 7.410156 32.628906 12.480469 L 39.839844 12.480469 C 40.101562 12.480469 40.347656 12.585938 40.53125 12.773438 C 40.714844 12.960938 40.808594 13.210938 40.800781 13.476562 L 39.757812 37.605469 C 39.671875 39.664062 37.984375 41.28125 35.921875 41.28125 Z M 8.160156 13.441406 L 9.199219 37.5625 C 9.265625 39.109375 10.53125 40.320312 12.078125 40.320312 L 35.921875 40.320312 C 37.46875 40.320312 38.734375 39.109375 38.800781 37.5625 L 39.839844 13.4375 L 39.839844 13.441406 L 32.160156 13.441406 C 31.894531 13.441406 31.679688 13.226562 31.679688 12.960938 C 31.679688 8.195312 28.234375 4.320312 24 4.320312 C 19.765625 4.320312 16.320312 8.195312 16.320312 12.960938 C 16.320312 13.226562 16.105469 13.441406 15.839844 13.441406 Z M 8.160156 13.441406 "/>
<path style=" stroke:none;fill-rule:nonzero;fill:rgb(100%,100%,100%);fill-opacity:1;" d="M 29.761719 13.441406 L 18.238281 13.441406 C 17.976562 13.441406 17.761719 13.226562 17.761719 12.960938 C 17.761719 8.988281 20.558594 5.761719 24 5.761719 C 27.441406 5.761719 30.238281 8.988281 30.238281 12.960938 C 30.238281 13.226562 30.023438 13.441406 29.761719 13.441406 Z M 18.734375 12.480469 L 29.265625 12.480469 C 29.054688 9.261719 26.773438 6.71875 24 6.71875 C 21.226562 6.71875 18.945312 9.261719 18.734375 12.480469 Z M 18.734375 12.480469 "/>
<path style=" stroke:none;fill-rule:nonzero;fill:rgb(100%,100%,100%);fill-opacity:1;" d="M 35.28125 38.878906 L 34.800781 38.878906 C 34.667969 38.878906 34.558594 38.773438 34.558594 38.640625 C 34.558594 38.507812 34.667969 38.398438 34.800781 38.398438 L 35.28125 38.398438 C 35.414062 38.398438 35.519531 38.507812 35.519531 38.640625 C 35.519531 38.773438 35.414062 38.878906 35.28125 38.878906 Z M 35.28125 38.878906 "/>
<path style=" stroke:none;fill-rule:nonzero;fill:rgb(100%,100%,100%);fill-opacity:1;" d="M 33.359375 38.878906 L 30.480469 38.878906 C 30.347656 38.878906 30.238281 38.773438 30.238281 38.640625 C 30.238281 38.507812 30.347656 38.398438 30.480469 38.398438 L 33.359375 38.398438 C 33.492188 38.398438 33.601562 38.507812 33.601562 38.640625 C 33.601562 38.773438 33.492188 38.878906 33.359375 38.878906 Z M 33.359375 38.878906 "/>
<path style=" stroke:none;fill-rule:nonzero;fill:rgb(100%,100%,100%);fill-opacity:1;" d="M 23.929688 36 C 20.960938 36 18.550781 34.226562 17.882812 33.683594 L 17.710938 33.546875 L 18.808594 31.925781 L 19.015625 32.128906 C 19.027344 32.140625 21.277344 34.078125 23.929688 34.078125 C 26.242188 34.078125 28.128906 32.738281 28.128906 31.089844 C 28.128906 29.011719 26.675781 28.253906 23.589844 27.125 C 21.226562 26.261719 18.289062 25.191406 18.289062 22.078125 C 18.289062 19.34375 20.765625 17.28125 24.046875 17.28125 C 26.445312 17.28125 28.351562 18.347656 29.058594 18.808594 C 29.167969 18.875 29.242188 18.980469 29.269531 19.105469 C 29.296875 19.230469 29.273438 19.359375 29.203125 19.464844 L 28.710938 20.265625 C 28.5625 20.496094 28.273438 20.5625 28.050781 20.421875 C 27.890625 20.324219 27.707031 20.214844 27.621094 20.167969 C 26.957031 19.808594 25.605469 19.199219 24.046875 19.199219 C 21.824219 19.199219 20.207031 20.410156 20.207031 22.078125 C 20.207031 23.722656 21.734375 24.398438 24.25 25.320312 C 26.972656 26.320312 30.046875 27.445312 30.046875 31.089844 C 30.046875 33.84375 27.359375 36 23.929688 36 Z M 18.359375 33.449219 C 19.082031 34.003906 21.308594 35.519531 23.929688 35.519531 C 27.089844 35.519531 29.566406 33.574219 29.566406 31.089844 C 29.566406 27.78125 26.660156 26.714844 24.09375 25.773438 C 21.375 24.777344 19.726562 24.035156 19.726562 22.078125 C 19.726562 20.132812 21.542969 18.71875 24.046875 18.71875 C 25.710938 18.71875 27.144531 19.363281 27.851562 19.746094 C 27.945312 19.796875 28.136719 19.910156 28.300781 20.011719 L 28.796875 19.210938 C 28.125 18.773438 26.316406 17.761719 24.046875 17.761719 C 21.039062 17.761719 18.769531 19.617188 18.769531 22.078125 C 18.769531 24.855469 21.417969 25.820312 23.753906 26.671875 C 26.773438 27.777344 28.609375 28.628906 28.609375 31.089844 C 28.609375 33.003906 26.507812 34.558594 23.929688 34.558594 C 21.574219 34.558594 19.550781 33.15625 18.898438 32.648438 Z M 18.359375 33.449219 "/>
<path style=" stroke:none;fill-rule:nonzero;fill:rgb(100%,100%,100%);fill-opacity:1;" d="M 28.078125 38.878906 L 13.226562 38.878906 C 11.808594 38.878906 10.648438 37.769531 10.589844 36.355469 L 9.984375 22.332031 C 9.976562 22.199219 10.082031 22.085938 10.214844 22.078125 C 10.351562 22.074219 10.457031 22.175781 10.464844 22.308594 L 11.066406 36.332031 C 11.117188 37.492188 12.066406 38.398438 13.226562 38.398438 L 28.078125 38.398438 C 28.210938 38.398438 28.320312 38.507812 28.320312 38.640625 C 28.320312 38.773438 28.210938 38.878906 28.078125 38.878906 Z M 28.078125 38.878906 "/>
</g>
</svg>
